# xmcd CD database file generated by LOLA_Freedb v0.9beta0
# 
# Track frame offsets:
#      150
#      13810
#      27427
#      42792
#      57385
#      70301
#      80748
#      90614
#      103480
#      113229
#      127132
#      141222
#      153545
#      164948
#      177175
#      188325
#      200207
#      210482
# 
# Disc length: 2965 seconds
# 
# Revision: 3 
# Processed by: cddbd v1.5.1PL2 Copyright (c) Steve Scherf et al.
# Submitted via: LOLA_Freedb v0.9beta0
# 
DISCID=120b9312
DTITLE=Various Artist - Country Classics
DYEAR=2001
DGENRE=Country
TTITLE0=Lynn Anderson - Rose Garden
TTITLE1=Jimmy Dean - Big Bad John
TTITLE2=Melba Montgomery - No Charge
TTITLE3=Jeannie C. Riley - Harper Valley PTA
TTITLE4=Faron Young - It's Four In The Morning
TTITLE5=George Hamilton IV - Abilene
TTITLE6=Hank Locklin - Please Help Me I'm Falling
TTITLE7=Claude King - Wolverton Mountain
TTITLE8=Ned Miller - From A Jack To A King
TTITLE9=Jeannie Seely - One Day At A Time
TTITLE10=Billie Jo Spears - Mr. Walker, It's All Over
TTITLE11=Porter Wagoner - A Satisfied Mind
TTITLE12=Kitty Wells - It Wasn't God Who Made Honky Tonk Angels
TTITLE13=Johnny Paycheck - Take This Job And Shove It
TTITLE14=Stonewall Jackson - Waterloo
TTITLE15=Wilma Burgess - Misty Blue
TTITLE16=Johnny Darrell - Ruby, Don't Take Your Love To Town
TTITLE17=Skeeter Davis - The End Of The World
EXTD=CDDBSort:various,country_classics YEAR: 2001
EXTT0=
EXTT1=
EXTT2=
EXTT3=
EXTT4=
EXTT5=
EXTT6=
EXTT7=
EXTT8=
EXTT9=
EXTT10=
EXTT11=
EXTT12=
EXTT13=
EXTT14=
EXTT15=
EXTT16=
EXTT17=
PLAYORDER=
